# Blender 3.3.1
# www.blender.org
mtllib control_box.mtl
o control_box
v -0.293685 -0.532468 0.155031
v 0.293685 -0.532468 0.155031
v -0.293685 0.532468 0.155031
v 0.293685 0.532468 0.155031
v 0.218109 0.532468 0.155031
v 0.071476 0.532468 0.155031
v -0.076854 0.532468 0.155031
v -0.219961 0.532468 0.155031
v -0.219961 -0.532468 0.155031
v -0.076854 -0.532468 0.155031
v 0.071476 -0.532468 0.155031
v 0.218109 -0.532468 0.155031
v -0.293685 -0.453102 0.155031
v 0.293685 -0.453102 0.155031
v 0.218109 -0.453102 0.155031
v 0.071476 -0.453102 0.155031
v -0.219961 -0.453102 0.155031
v -0.076854 -0.453102 0.155031
v -0.293685 -0.532468 -0.155031
v 0.293685 -0.532468 -0.155031
v -0.293685 0.532468 -0.155031
v 0.293685 0.532468 -0.155031
v 0.218109 0.532468 -0.155031
v 0.071476 0.532468 -0.155031
v -0.076854 0.532468 -0.155031
v -0.219961 0.532468 -0.155031
v -0.219961 -0.532468 -0.155031
v -0.076854 -0.532468 -0.155031
v 0.071476 -0.532468 -0.155031
v 0.218109 -0.532468 -0.155031
v -0.293685 -0.453102 -0.155031
v 0.293685 -0.453102 -0.155031
v 0.218109 -0.453102 -0.155031
v 0.071476 -0.453102 -0.155031
v -0.219961 -0.453102 -0.155031
v -0.076854 -0.453102 -0.155031
v -0.293685 -0.353059 0.155031
v -0.219961 -0.353059 0.155031
v -0.076854 -0.353059 0.155031
v 0.293685 -0.353059 0.155031
v 0.218109 -0.353059 0.155031
v 0.071476 -0.353059 0.155031
v -0.293685 -0.353059 -0.155031
v 0.293685 -0.353059 -0.155031
v -0.219961 -0.353059 -0.155031
v -0.076854 -0.353059 -0.155031
v 0.071476 -0.353059 -0.155031
v 0.218109 -0.353059 -0.155031
vn -0.0000 -0.0000 1.0000
vn -1.0000 -0.0000 -0.0000
vn -0.0000 1.0000 -0.0000
vn 1.0000 -0.0000 -0.0000
vn -0.0000 -0.0000 -1.0000
vt 0.772625 0.994900
vt 0.007619 0.010666
vt 0.395617 0.994900
vt 0.990215 0.994900
vt 0.772625 0.233685
vt 0.991427 0.219332
vt 0.629049 0.010666
vt 0.648674 0.219332
vt 0.990215 0.233685
vt 0.395617 0.233685
vt 0.692775 0.219332
vt 0.444126 0.233685
vt 0.778341 0.219332
vt 0.538244 0.233685
vt 0.864897 0.219332
vt 0.633450 0.233685
vt 0.725305 0.233685
vt 0.948406 0.219332
vt 0.725305 0.994900
vt 0.633450 0.994900
vt 0.538244 0.994900
vt 0.444126 0.994900
vt 0.053932 0.010666
vt 0.772625 0.938170
vt 0.395617 0.938170
vt 0.990215 0.938169
vt 0.444126 0.938170
vt 0.538244 0.938170
vt 0.725305 0.938170
vt 0.633450 0.938170
vt 0.007619 0.226605
vt 0.010425 0.995020
vt 0.791199 0.994900
vt 0.387433 0.995020
vt 0.991427 0.003394
vt 0.629049 0.226604
vt 0.010425 0.233805
vt 0.648674 0.003394
vt 0.791199 0.233685
vt 0.387433 0.233805
vt 0.692775 0.003394
vt 0.338924 0.233805
vt 0.778341 0.003394
vt 0.244806 0.233805
vt 0.864897 0.003394
vt 0.149600 0.233805
vt 0.948406 0.003394
vt 0.057745 0.233805
vt 0.057745 0.995020
vt 0.149600 0.995020
vt 0.244806 0.995020
vt 0.338924 0.995020
vt 0.053932 0.226605
vt 0.010425 0.938289
vt 0.387433 0.938289
vt 0.791199 0.938169
vt 0.338924 0.938289
vt 0.244806 0.938289
vt 0.057745 0.938289
vt 0.149600 0.938289
vt 0.772625 0.866659
vt 0.112310 0.010666
vt 0.725305 0.866659
vt 0.633450 0.866659
vt 0.395617 0.866659
vt 0.990215 0.866659
vt 0.444126 0.866659
vt 0.538244 0.866659
vt 0.112310 0.226604
vt 0.010425 0.866779
vt 0.791199 0.866659
vt 0.387433 0.866779
vt 0.057745 0.866779
vt 0.149600 0.866779
vt 0.244806 0.866779
vt 0.338924 0.866779
s 1
usemtl Material_#1
f 11/21/1 16/28/1 18/30/1 10/20/1
f 2/3/1 14/25/1 15/27/1 12/22/1
f 3/5/1 37/61/1 38/63/1 8/17/1
f 8/17/1 38/63/1 39/64/1 7/16/1
f 42/68/1 39/64/1 18/30/1 16/28/1
f 40/65/1 41/67/1 15/27/1 14/25/1
f 41/67/1 42/68/1 16/28/1 15/27/1
f 1/1/1 9/19/1 17/29/1 13/24/1
f 37/62/2 43/69/2 31/53/2 13/23/2
f 5/11/3 4/8/3 22/38/3 23/41/3
f 14/26/4 2/4/4 20/33/4 32/56/4
f 6/13/3 5/11/3 23/41/3 24/43/3
f 7/15/3 6/13/3 24/43/3 25/45/3
f 8/18/3 7/15/3 25/45/3 26/47/3
f 3/6/3 8/18/3 26/47/3 21/35/3
f 1/2/2 13/23/2 31/53/2 19/31/2
f 40/66/4 44/71/4 22/39/4 4/9/4
f 27/49/5 19/32/5 31/54/5 35/59/5
f 36/60/5 34/58/5 29/51/5 28/50/5
f 33/57/5 32/55/5 20/34/5 30/52/5
f 31/54/5 43/70/5 45/73/5 35/59/5
f 35/59/5 45/73/5 46/74/5 36/60/5
f 36/60/5 46/74/5 47/75/5 34/58/5
f 34/58/5 47/75/5 48/76/5 33/57/5
f 33/57/5 48/76/5 44/72/5 32/55/5
f 13/24/1 17/29/1 38/63/1 37/61/1
f 17/29/1 18/30/1 39/64/1 38/63/1
f 6/14/1 7/16/1 39/64/1 42/68/1
f 4/10/1 5/12/1 41/67/1 40/65/1
f 5/12/1 6/14/1 42/68/1 41/67/1
f 3/7/2 21/36/2 43/69/2 37/62/2
f 14/26/4 32/56/4 44/71/4 40/66/4
f 21/37/5 26/48/5 45/73/5 43/70/5
f 26/48/5 25/46/5 46/74/5 45/73/5
f 25/46/5 24/44/5 47/75/5 46/74/5
f 24/44/5 23/42/5 48/76/5 47/75/5
f 23/42/5 22/40/5 44/72/5 48/76/5
